<?xml version="1.0" standalone="no"?>
<!DOCTYPE svg PUBLIC "-//W3C//DTD SVG 1.1//EN" "http://www.w3.org/Graphics/SVG/1.1/DTD/svg11.dtd">
<svg width="246" height="246" version="1.1" xmlns="http://www.w3.org/2000/svg">
	<desc>https://github.com/bujniewicz/mdm-ml-for-developers/</desc>
	<g id="elements" fill="black" stroke="none">
		<rect x="0" y="0" width="6" height="6" />
		<rect x="6" y="0" width="6" height="6" />
		<rect x="12" y="0" width="6" height="6" />
		<rect x="18" y="0" width="6" height="6" />
		<rect x="24" y="0" width="6" height="6" />
		<rect x="30" y="0" width="6" height="6" />
		<rect x="36" y="0" width="6" height="6" />
		<rect x="48" y="0" width="6" height="6" />
		<rect x="60" y="0" width="6" height="6" />
		<rect x="78" y="0" width="6" height="6" />
		<rect x="84" y="0" width="6" height="6" />
		<rect x="96" y="0" width="6" height="6" />
		<rect x="102" y="0" width="6" height="6" />
		<rect x="108" y="0" width="6" height="6" />
		<rect x="126" y="0" width="6" height="6" />
		<rect x="162" y="0" width="6" height="6" />
		<rect x="174" y="0" width="6" height="6" />
		<rect x="180" y="0" width="6" height="6" />
		<rect x="186" y="0" width="6" height="6" />
		<rect x="204" y="0" width="6" height="6" />
		<rect x="210" y="0" width="6" height="6" />
		<rect x="216" y="0" width="6" height="6" />
		<rect x="222" y="0" width="6" height="6" />
		<rect x="228" y="0" width="6" height="6" />
		<rect x="234" y="0" width="6" height="6" />
		<rect x="240" y="0" width="6" height="6" />
		<rect x="0" y="6" width="6" height="6" />
		<rect x="36" y="6" width="6" height="6" />
		<rect x="48" y="6" width="6" height="6" />
		<rect x="66" y="6" width="6" height="6" />
		<rect x="90" y="6" width="6" height="6" />
		<rect x="96" y="6" width="6" height="6" />
		<rect x="120" y="6" width="6" height="6" />
		<rect x="132" y="6" width="6" height="6" />
		<rect x="144" y="6" width="6" height="6" />
		<rect x="162" y="6" width="6" height="6" />
		<rect x="180" y="6" width="6" height="6" />
		<rect x="204" y="6" width="6" height="6" />
		<rect x="240" y="6" width="6" height="6" />
		<rect x="0" y="12" width="6" height="6" />
		<rect x="12" y="12" width="6" height="6" />
		<rect x="18" y="12" width="6" height="6" />
		<rect x="24" y="12" width="6" height="6" />
		<rect x="36" y="12" width="6" height="6" />
		<rect x="72" y="12" width="6" height="6" />
		<rect x="78" y="12" width="6" height="6" />
		<rect x="84" y="12" width="6" height="6" />
		<rect x="96" y="12" width="6" height="6" />
		<rect x="108" y="12" width="6" height="6" />
		<rect x="114" y="12" width="6" height="6" />
		<rect x="120" y="12" width="6" height="6" />
		<rect x="132" y="12" width="6" height="6" />
		<rect x="156" y="12" width="6" height="6" />
		<rect x="180" y="12" width="6" height="6" />
		<rect x="186" y="12" width="6" height="6" />
		<rect x="192" y="12" width="6" height="6" />
		<rect x="204" y="12" width="6" height="6" />
		<rect x="216" y="12" width="6" height="6" />
		<rect x="222" y="12" width="6" height="6" />
		<rect x="228" y="12" width="6" height="6" />
		<rect x="240" y="12" width="6" height="6" />
		<rect x="0" y="18" width="6" height="6" />
		<rect x="12" y="18" width="6" height="6" />
		<rect x="18" y="18" width="6" height="6" />
		<rect x="24" y="18" width="6" height="6" />
		<rect x="36" y="18" width="6" height="6" />
		<rect x="48" y="18" width="6" height="6" />
		<rect x="72" y="18" width="6" height="6" />
		<rect x="78" y="18" width="6" height="6" />
		<rect x="84" y="18" width="6" height="6" />
		<rect x="96" y="18" width="6" height="6" />
		<rect x="102" y="18" width="6" height="6" />
		<rect x="114" y="18" width="6" height="6" />
		<rect x="120" y="18" width="6" height="6" />
		<rect x="126" y="18" width="6" height="6" />
		<rect x="132" y="18" width="6" height="6" />
		<rect x="138" y="18" width="6" height="6" />
		<rect x="150" y="18" width="6" height="6" />
		<rect x="162" y="18" width="6" height="6" />
		<rect x="168" y="18" width="6" height="6" />
		<rect x="174" y="18" width="6" height="6" />
		<rect x="180" y="18" width="6" height="6" />
		<rect x="186" y="18" width="6" height="6" />
		<rect x="204" y="18" width="6" height="6" />
		<rect x="216" y="18" width="6" height="6" />
		<rect x="222" y="18" width="6" height="6" />
		<rect x="228" y="18" width="6" height="6" />
		<rect x="240" y="18" width="6" height="6" />
		<rect x="0" y="24" width="6" height="6" />
		<rect x="12" y="24" width="6" height="6" />
		<rect x="18" y="24" width="6" height="6" />
		<rect x="24" y="24" width="6" height="6" />
		<rect x="36" y="24" width="6" height="6" />
		<rect x="48" y="24" width="6" height="6" />
		<rect x="66" y="24" width="6" height="6" />
		<rect x="84" y="24" width="6" height="6" />
		<rect x="90" y="24" width="6" height="6" />
		<rect x="96" y="24" width="6" height="6" />
		<rect x="102" y="24" width="6" height="6" />
		<rect x="108" y="24" width="6" height="6" />
		<rect x="120" y="24" width="6" height="6" />
		<rect x="138" y="24" width="6" height="6" />
		<rect x="144" y="24" width="6" height="6" />
		<rect x="150" y="24" width="6" height="6" />
		<rect x="162" y="24" width="6" height="6" />
		<rect x="168" y="24" width="6" height="6" />
		<rect x="180" y="24" width="6" height="6" />
		<rect x="204" y="24" width="6" height="6" />
		<rect x="216" y="24" width="6" height="6" />
		<rect x="222" y="24" width="6" height="6" />
		<rect x="228" y="24" width="6" height="6" />
		<rect x="240" y="24" width="6" height="6" />
		<rect x="0" y="30" width="6" height="6" />
		<rect x="36" y="30" width="6" height="6" />
		<rect x="48" y="30" width="6" height="6" />
		<rect x="66" y="30" width="6" height="6" />
		<rect x="78" y="30" width="6" height="6" />
		<rect x="102" y="30" width="6" height="6" />
		<rect x="108" y="30" width="6" height="6" />
		<rect x="114" y="30" width="6" height="6" />
		<rect x="126" y="30" width="6" height="6" />
		<rect x="132" y="30" width="6" height="6" />
		<rect x="162" y="30" width="6" height="6" />
		<rect x="168" y="30" width="6" height="6" />
		<rect x="174" y="30" width="6" height="6" />
		<rect x="180" y="30" width="6" height="6" />
		<rect x="186" y="30" width="6" height="6" />
		<rect x="192" y="30" width="6" height="6" />
		<rect x="204" y="30" width="6" height="6" />
		<rect x="240" y="30" width="6" height="6" />
		<rect x="0" y="36" width="6" height="6" />
		<rect x="6" y="36" width="6" height="6" />
		<rect x="12" y="36" width="6" height="6" />
		<rect x="18" y="36" width="6" height="6" />
		<rect x="24" y="36" width="6" height="6" />
		<rect x="30" y="36" width="6" height="6" />
		<rect x="36" y="36" width="6" height="6" />
		<rect x="48" y="36" width="6" height="6" />
		<rect x="60" y="36" width="6" height="6" />
		<rect x="72" y="36" width="6" height="6" />
		<rect x="84" y="36" width="6" height="6" />
		<rect x="96" y="36" width="6" height="6" />
		<rect x="108" y="36" width="6" height="6" />
		<rect x="120" y="36" width="6" height="6" />
		<rect x="132" y="36" width="6" height="6" />
		<rect x="144" y="36" width="6" height="6" />
		<rect x="156" y="36" width="6" height="6" />
		<rect x="168" y="36" width="6" height="6" />
		<rect x="180" y="36" width="6" height="6" />
		<rect x="192" y="36" width="6" height="6" />
		<rect x="204" y="36" width="6" height="6" />
		<rect x="210" y="36" width="6" height="6" />
		<rect x="216" y="36" width="6" height="6" />
		<rect x="222" y="36" width="6" height="6" />
		<rect x="228" y="36" width="6" height="6" />
		<rect x="234" y="36" width="6" height="6" />
		<rect x="240" y="36" width="6" height="6" />
		<rect x="66" y="42" width="6" height="6" />
		<rect x="90" y="42" width="6" height="6" />
		<rect x="96" y="42" width="6" height="6" />
		<rect x="102" y="42" width="6" height="6" />
		<rect x="108" y="42" width="6" height="6" />
		<rect x="120" y="42" width="6" height="6" />
		<rect x="138" y="42" width="6" height="6" />
		<rect x="144" y="42" width="6" height="6" />
		<rect x="168" y="42" width="6" height="6" />
		<rect x="174" y="42" width="6" height="6" />
		<rect x="180" y="42" width="6" height="6" />
		<rect x="186" y="42" width="6" height="6" />
		<rect x="192" y="42" width="6" height="6" />
		<rect x="18" y="48" width="6" height="6" />
		<rect x="36" y="48" width="6" height="6" />
		<rect x="66" y="48" width="6" height="6" />
		<rect x="72" y="48" width="6" height="6" />
		<rect x="90" y="48" width="6" height="6" />
		<rect x="96" y="48" width="6" height="6" />
		<rect x="108" y="48" width="6" height="6" />
		<rect x="120" y="48" width="6" height="6" />
		<rect x="132" y="48" width="6" height="6" />
		<rect x="144" y="48" width="6" height="6" />
		<rect x="150" y="48" width="6" height="6" />
		<rect x="156" y="48" width="6" height="6" />
		<rect x="168" y="48" width="6" height="6" />
		<rect x="186" y="48" width="6" height="6" />
		<rect x="210" y="48" width="6" height="6" />
		<rect x="216" y="48" width="6" height="6" />
		<rect x="222" y="48" width="6" height="6" />
		<rect x="234" y="48" width="6" height="6" />
		<rect x="240" y="48" width="6" height="6" />
		<rect x="6" y="54" width="6" height="6" />
		<rect x="12" y="54" width="6" height="6" />
		<rect x="54" y="54" width="6" height="6" />
		<rect x="72" y="54" width="6" height="6" />
		<rect x="90" y="54" width="6" height="6" />
		<rect x="102" y="54" width="6" height="6" />
		<rect x="114" y="54" width="6" height="6" />
		<rect x="120" y="54" width="6" height="6" />
		<rect x="126" y="54" width="6" height="6" />
		<rect x="138" y="54" width="6" height="6" />
		<rect x="144" y="54" width="6" height="6" />
		<rect x="168" y="54" width="6" height="6" />
		<rect x="192" y="54" width="6" height="6" />
		<rect x="198" y="54" width="6" height="6" />
		<rect x="204" y="54" width="6" height="6" />
		<rect x="222" y="54" width="6" height="6" />
		<rect x="228" y="54" width="6" height="6" />
		<rect x="234" y="54" width="6" height="6" />
		<rect x="240" y="54" width="6" height="6" />
		<rect x="6" y="60" width="6" height="6" />
		<rect x="12" y="60" width="6" height="6" />
		<rect x="18" y="60" width="6" height="6" />
		<rect x="36" y="60" width="6" height="6" />
		<rect x="42" y="60" width="6" height="6" />
		<rect x="60" y="60" width="6" height="6" />
		<rect x="66" y="60" width="6" height="6" />
		<rect x="72" y="60" width="6" height="6" />
		<rect x="78" y="60" width="6" height="6" />
		<rect x="84" y="60" width="6" height="6" />
		<rect x="114" y="60" width="6" height="6" />
		<rect x="120" y="60" width="6" height="6" />
		<rect x="126" y="60" width="6" height="6" />
		<rect x="150" y="60" width="6" height="6" />
		<rect x="156" y="60" width="6" height="6" />
		<rect x="168" y="60" width="6" height="6" />
		<rect x="180" y="60" width="6" height="6" />
		<rect x="186" y="60" width="6" height="6" />
		<rect x="198" y="60" width="6" height="6" />
		<rect x="210" y="60" width="6" height="6" />
		<rect x="216" y="60" width="6" height="6" />
		<rect x="222" y="60" width="6" height="6" />
		<rect x="228" y="60" width="6" height="6" />
		<rect x="234" y="60" width="6" height="6" />
		<rect x="6" y="66" width="6" height="6" />
		<rect x="18" y="66" width="6" height="6" />
		<rect x="24" y="66" width="6" height="6" />
		<rect x="30" y="66" width="6" height="6" />
		<rect x="42" y="66" width="6" height="6" />
		<rect x="48" y="66" width="6" height="6" />
		<rect x="60" y="66" width="6" height="6" />
		<rect x="72" y="66" width="6" height="6" />
		<rect x="78" y="66" width="6" height="6" />
		<rect x="84" y="66" width="6" height="6" />
		<rect x="108" y="66" width="6" height="6" />
		<rect x="120" y="66" width="6" height="6" />
		<rect x="126" y="66" width="6" height="6" />
		<rect x="138" y="66" width="6" height="6" />
		<rect x="162" y="66" width="6" height="6" />
		<rect x="168" y="66" width="6" height="6" />
		<rect x="180" y="66" width="6" height="6" />
		<rect x="210" y="66" width="6" height="6" />
		<rect x="216" y="66" width="6" height="6" />
		<rect x="228" y="66" width="6" height="6" />
		<rect x="0" y="72" width="6" height="6" />
		<rect x="18" y="72" width="6" height="6" />
		<rect x="24" y="72" width="6" height="6" />
		<rect x="36" y="72" width="6" height="6" />
		<rect x="54" y="72" width="6" height="6" />
		<rect x="66" y="72" width="6" height="6" />
		<rect x="78" y="72" width="6" height="6" />
		<rect x="84" y="72" width="6" height="6" />
		<rect x="90" y="72" width="6" height="6" />
		<rect x="102" y="72" width="6" height="6" />
		<rect x="108" y="72" width="6" height="6" />
		<rect x="114" y="72" width="6" height="6" />
		<rect x="120" y="72" width="6" height="6" />
		<rect x="126" y="72" width="6" height="6" />
		<rect x="168" y="72" width="6" height="6" />
		<rect x="174" y="72" width="6" height="6" />
		<rect x="186" y="72" width="6" height="6" />
		<rect x="192" y="72" width="6" height="6" />
		<rect x="198" y="72" width="6" height="6" />
		<rect x="204" y="72" width="6" height="6" />
		<rect x="222" y="72" width="6" height="6" />
		<rect x="234" y="72" width="6" height="6" />
		<rect x="240" y="72" width="6" height="6" />
		<rect x="12" y="78" width="6" height="6" />
		<rect x="18" y="78" width="6" height="6" />
		<rect x="24" y="78" width="6" height="6" />
		<rect x="42" y="78" width="6" height="6" />
		<rect x="54" y="78" width="6" height="6" />
		<rect x="78" y="78" width="6" height="6" />
		<rect x="96" y="78" width="6" height="6" />
		<rect x="102" y="78" width="6" height="6" />
		<rect x="126" y="78" width="6" height="6" />
		<rect x="138" y="78" width="6" height="6" />
		<rect x="156" y="78" width="6" height="6" />
		<rect x="162" y="78" width="6" height="6" />
		<rect x="234" y="78" width="6" height="6" />
		<rect x="12" y="84" width="6" height="6" />
		<rect x="24" y="84" width="6" height="6" />
		<rect x="30" y="84" width="6" height="6" />
		<rect x="36" y="84" width="6" height="6" />
		<rect x="42" y="84" width="6" height="6" />
		<rect x="66" y="84" width="6" height="6" />
		<rect x="78" y="84" width="6" height="6" />
		<rect x="84" y="84" width="6" height="6" />
		<rect x="90" y="84" width="6" height="6" />
		<rect x="96" y="84" width="6" height="6" />
		<rect x="120" y="84" width="6" height="6" />
		<rect x="132" y="84" width="6" height="6" />
		<rect x="144" y="84" width="6" height="6" />
		<rect x="156" y="84" width="6" height="6" />
		<rect x="162" y="84" width="6" height="6" />
		<rect x="168" y="84" width="6" height="6" />
		<rect x="192" y="84" width="6" height="6" />
		<rect x="204" y="84" width="6" height="6" />
		<rect x="222" y="84" width="6" height="6" />
		<rect x="228" y="84" width="6" height="6" />
		<rect x="234" y="84" width="6" height="6" />
		<rect x="240" y="84" width="6" height="6" />
		<rect x="0" y="90" width="6" height="6" />
		<rect x="30" y="90" width="6" height="6" />
		<rect x="54" y="90" width="6" height="6" />
		<rect x="72" y="90" width="6" height="6" />
		<rect x="84" y="90" width="6" height="6" />
		<rect x="120" y="90" width="6" height="6" />
		<rect x="150" y="90" width="6" height="6" />
		<rect x="168" y="90" width="6" height="6" />
		<rect x="174" y="90" width="6" height="6" />
		<rect x="180" y="90" width="6" height="6" />
		<rect x="192" y="90" width="6" height="6" />
		<rect x="204" y="90" width="6" height="6" />
		<rect x="216" y="90" width="6" height="6" />
		<rect x="240" y="90" width="6" height="6" />
		<rect x="0" y="96" width="6" height="6" />
		<rect x="12" y="96" width="6" height="6" />
		<rect x="24" y="96" width="6" height="6" />
		<rect x="36" y="96" width="6" height="6" />
		<rect x="48" y="96" width="6" height="6" />
		<rect x="54" y="96" width="6" height="6" />
		<rect x="72" y="96" width="6" height="6" />
		<rect x="96" y="96" width="6" height="6" />
		<rect x="102" y="96" width="6" height="6" />
		<rect x="108" y="96" width="6" height="6" />
		<rect x="120" y="96" width="6" height="6" />
		<rect x="126" y="96" width="6" height="6" />
		<rect x="138" y="96" width="6" height="6" />
		<rect x="144" y="96" width="6" height="6" />
		<rect x="162" y="96" width="6" height="6" />
		<rect x="174" y="96" width="6" height="6" />
		<rect x="192" y="96" width="6" height="6" />
		<rect x="210" y="96" width="6" height="6" />
		<rect x="222" y="96" width="6" height="6" />
		<rect x="234" y="96" width="6" height="6" />
		<rect x="240" y="96" width="6" height="6" />
		<rect x="0" y="102" width="6" height="6" />
		<rect x="12" y="102" width="6" height="6" />
		<rect x="24" y="102" width="6" height="6" />
		<rect x="30" y="102" width="6" height="6" />
		<rect x="48" y="102" width="6" height="6" />
		<rect x="54" y="102" width="6" height="6" />
		<rect x="66" y="102" width="6" height="6" />
		<rect x="78" y="102" width="6" height="6" />
		<rect x="84" y="102" width="6" height="6" />
		<rect x="90" y="102" width="6" height="6" />
		<rect x="114" y="102" width="6" height="6" />
		<rect x="120" y="102" width="6" height="6" />
		<rect x="126" y="102" width="6" height="6" />
		<rect x="132" y="102" width="6" height="6" />
		<rect x="150" y="102" width="6" height="6" />
		<rect x="156" y="102" width="6" height="6" />
		<rect x="168" y="102" width="6" height="6" />
		<rect x="180" y="102" width="6" height="6" />
		<rect x="204" y="102" width="6" height="6" />
		<rect x="210" y="102" width="6" height="6" />
		<rect x="234" y="102" width="6" height="6" />
		<rect x="240" y="102" width="6" height="6" />
		<rect x="6" y="108" width="6" height="6" />
		<rect x="12" y="108" width="6" height="6" />
		<rect x="36" y="108" width="6" height="6" />
		<rect x="60" y="108" width="6" height="6" />
		<rect x="72" y="108" width="6" height="6" />
		<rect x="84" y="108" width="6" height="6" />
		<rect x="90" y="108" width="6" height="6" />
		<rect x="96" y="108" width="6" height="6" />
		<rect x="108" y="108" width="6" height="6" />
		<rect x="114" y="108" width="6" height="6" />
		<rect x="132" y="108" width="6" height="6" />
		<rect x="138" y="108" width="6" height="6" />
		<rect x="150" y="108" width="6" height="6" />
		<rect x="168" y="108" width="6" height="6" />
		<rect x="180" y="108" width="6" height="6" />
		<rect x="204" y="108" width="6" height="6" />
		<rect x="216" y="108" width="6" height="6" />
		<rect x="222" y="108" width="6" height="6" />
		<rect x="228" y="108" width="6" height="6" />
		<rect x="234" y="108" width="6" height="6" />
		<rect x="240" y="108" width="6" height="6" />
		<rect x="6" y="114" width="6" height="6" />
		<rect x="24" y="114" width="6" height="6" />
		<rect x="30" y="114" width="6" height="6" />
		<rect x="42" y="114" width="6" height="6" />
		<rect x="54" y="114" width="6" height="6" />
		<rect x="60" y="114" width="6" height="6" />
		<rect x="120" y="114" width="6" height="6" />
		<rect x="132" y="114" width="6" height="6" />
		<rect x="138" y="114" width="6" height="6" />
		<rect x="144" y="114" width="6" height="6" />
		<rect x="162" y="114" width="6" height="6" />
		<rect x="174" y="114" width="6" height="6" />
		<rect x="180" y="114" width="6" height="6" />
		<rect x="192" y="114" width="6" height="6" />
		<rect x="198" y="114" width="6" height="6" />
		<rect x="210" y="114" width="6" height="6" />
		<rect x="222" y="114" width="6" height="6" />
		<rect x="234" y="114" width="6" height="6" />
		<rect x="0" y="120" width="6" height="6" />
		<rect x="18" y="120" width="6" height="6" />
		<rect x="24" y="120" width="6" height="6" />
		<rect x="30" y="120" width="6" height="6" />
		<rect x="36" y="120" width="6" height="6" />
		<rect x="42" y="120" width="6" height="6" />
		<rect x="48" y="120" width="6" height="6" />
		<rect x="60" y="120" width="6" height="6" />
		<rect x="66" y="120" width="6" height="6" />
		<rect x="72" y="120" width="6" height="6" />
		<rect x="78" y="120" width="6" height="6" />
		<rect x="90" y="120" width="6" height="6" />
		<rect x="102" y="120" width="6" height="6" />
		<rect x="108" y="120" width="6" height="6" />
		<rect x="114" y="120" width="6" height="6" />
		<rect x="132" y="120" width="6" height="6" />
		<rect x="138" y="120" width="6" height="6" />
		<rect x="168" y="120" width="6" height="6" />
		<rect x="174" y="120" width="6" height="6" />
		<rect x="180" y="120" width="6" height="6" />
		<rect x="186" y="120" width="6" height="6" />
		<rect x="198" y="120" width="6" height="6" />
		<rect x="204" y="120" width="6" height="6" />
		<rect x="210" y="120" width="6" height="6" />
		<rect x="228" y="120" width="6" height="6" />
		<rect x="234" y="120" width="6" height="6" />
		<rect x="12" y="126" width="6" height="6" />
		<rect x="18" y="126" width="6" height="6" />
		<rect x="48" y="126" width="6" height="6" />
		<rect x="54" y="126" width="6" height="6" />
		<rect x="72" y="126" width="6" height="6" />
		<rect x="90" y="126" width="6" height="6" />
		<rect x="96" y="126" width="6" height="6" />
		<rect x="114" y="126" width="6" height="6" />
		<rect x="126" y="126" width="6" height="6" />
		<rect x="132" y="126" width="6" height="6" />
		<rect x="144" y="126" width="6" height="6" />
		<rect x="150" y="126" width="6" height="6" />
		<rect x="168" y="126" width="6" height="6" />
		<rect x="180" y="126" width="6" height="6" />
		<rect x="192" y="126" width="6" height="6" />
		<rect x="204" y="126" width="6" height="6" />
		<rect x="228" y="126" width="6" height="6" />
		<rect x="234" y="126" width="6" height="6" />
		<rect x="240" y="126" width="6" height="6" />
		<rect x="0" y="132" width="6" height="6" />
		<rect x="12" y="132" width="6" height="6" />
		<rect x="18" y="132" width="6" height="6" />
		<rect x="24" y="132" width="6" height="6" />
		<rect x="30" y="132" width="6" height="6" />
		<rect x="36" y="132" width="6" height="6" />
		<rect x="42" y="132" width="6" height="6" />
		<rect x="48" y="132" width="6" height="6" />
		<rect x="66" y="132" width="6" height="6" />
		<rect x="78" y="132" width="6" height="6" />
		<rect x="90" y="132" width="6" height="6" />
		<rect x="96" y="132" width="6" height="6" />
		<rect x="114" y="132" width="6" height="6" />
		<rect x="120" y="132" width="6" height="6" />
		<rect x="126" y="132" width="6" height="6" />
		<rect x="132" y="132" width="6" height="6" />
		<rect x="138" y="132" width="6" height="6" />
		<rect x="144" y="132" width="6" height="6" />
		<rect x="168" y="132" width="6" height="6" />
		<rect x="180" y="132" width="6" height="6" />
		<rect x="186" y="132" width="6" height="6" />
		<rect x="192" y="132" width="6" height="6" />
		<rect x="198" y="132" width="6" height="6" />
		<rect x="204" y="132" width="6" height="6" />
		<rect x="216" y="132" width="6" height="6" />
		<rect x="222" y="132" width="6" height="6" />
		<rect x="228" y="132" width="6" height="6" />
		<rect x="234" y="132" width="6" height="6" />
		<rect x="0" y="138" width="6" height="6" />
		<rect x="18" y="138" width="6" height="6" />
		<rect x="30" y="138" width="6" height="6" />
		<rect x="54" y="138" width="6" height="6" />
		<rect x="78" y="138" width="6" height="6" />
		<rect x="96" y="138" width="6" height="6" />
		<rect x="114" y="138" width="6" height="6" />
		<rect x="126" y="138" width="6" height="6" />
		<rect x="132" y="138" width="6" height="6" />
		<rect x="150" y="138" width="6" height="6" />
		<rect x="162" y="138" width="6" height="6" />
		<rect x="180" y="138" width="6" height="6" />
		<rect x="192" y="138" width="6" height="6" />
		<rect x="228" y="138" width="6" height="6" />
		<rect x="234" y="138" width="6" height="6" />
		<rect x="36" y="144" width="6" height="6" />
		<rect x="42" y="144" width="6" height="6" />
		<rect x="48" y="144" width="6" height="6" />
		<rect x="54" y="144" width="6" height="6" />
		<rect x="60" y="144" width="6" height="6" />
		<rect x="66" y="144" width="6" height="6" />
		<rect x="72" y="144" width="6" height="6" />
		<rect x="78" y="144" width="6" height="6" />
		<rect x="84" y="144" width="6" height="6" />
		<rect x="96" y="144" width="6" height="6" />
		<rect x="114" y="144" width="6" height="6" />
		<rect x="120" y="144" width="6" height="6" />
		<rect x="132" y="144" width="6" height="6" />
		<rect x="138" y="144" width="6" height="6" />
		<rect x="150" y="144" width="6" height="6" />
		<rect x="162" y="144" width="6" height="6" />
		<rect x="174" y="144" width="6" height="6" />
		<rect x="186" y="144" width="6" height="6" />
		<rect x="192" y="144" width="6" height="6" />
		<rect x="198" y="144" width="6" height="6" />
		<rect x="204" y="144" width="6" height="6" />
		<rect x="234" y="144" width="6" height="6" />
		<rect x="240" y="144" width="6" height="6" />
		<rect x="6" y="150" width="6" height="6" />
		<rect x="12" y="150" width="6" height="6" />
		<rect x="30" y="150" width="6" height="6" />
		<rect x="42" y="150" width="6" height="6" />
		<rect x="60" y="150" width="6" height="6" />
		<rect x="72" y="150" width="6" height="6" />
		<rect x="78" y="150" width="6" height="6" />
		<rect x="108" y="150" width="6" height="6" />
		<rect x="126" y="150" width="6" height="6" />
		<rect x="138" y="150" width="6" height="6" />
		<rect x="144" y="150" width="6" height="6" />
		<rect x="150" y="150" width="6" height="6" />
		<rect x="174" y="150" width="6" height="6" />
		<rect x="180" y="150" width="6" height="6" />
		<rect x="186" y="150" width="6" height="6" />
		<rect x="198" y="150" width="6" height="6" />
		<rect x="210" y="150" width="6" height="6" />
		<rect x="222" y="150" width="6" height="6" />
		<rect x="234" y="150" width="6" height="6" />
		<rect x="6" y="156" width="6" height="6" />
		<rect x="18" y="156" width="6" height="6" />
		<rect x="24" y="156" width="6" height="6" />
		<rect x="30" y="156" width="6" height="6" />
		<rect x="36" y="156" width="6" height="6" />
		<rect x="66" y="156" width="6" height="6" />
		<rect x="84" y="156" width="6" height="6" />
		<rect x="90" y="156" width="6" height="6" />
		<rect x="96" y="156" width="6" height="6" />
		<rect x="102" y="156" width="6" height="6" />
		<rect x="108" y="156" width="6" height="6" />
		<rect x="126" y="156" width="6" height="6" />
		<rect x="132" y="156" width="6" height="6" />
		<rect x="144" y="156" width="6" height="6" />
		<rect x="156" y="156" width="6" height="6" />
		<rect x="168" y="156" width="6" height="6" />
		<rect x="174" y="156" width="6" height="6" />
		<rect x="192" y="156" width="6" height="6" />
		<rect x="204" y="156" width="6" height="6" />
		<rect x="216" y="156" width="6" height="6" />
		<rect x="234" y="156" width="6" height="6" />
		<rect x="240" y="156" width="6" height="6" />
		<rect x="0" y="162" width="6" height="6" />
		<rect x="12" y="162" width="6" height="6" />
		<rect x="18" y="162" width="6" height="6" />
		<rect x="30" y="162" width="6" height="6" />
		<rect x="48" y="162" width="6" height="6" />
		<rect x="54" y="162" width="6" height="6" />
		<rect x="60" y="162" width="6" height="6" />
		<rect x="96" y="162" width="6" height="6" />
		<rect x="102" y="162" width="6" height="6" />
		<rect x="114" y="162" width="6" height="6" />
		<rect x="126" y="162" width="6" height="6" />
		<rect x="132" y="162" width="6" height="6" />
		<rect x="162" y="162" width="6" height="6" />
		<rect x="174" y="162" width="6" height="6" />
		<rect x="180" y="162" width="6" height="6" />
		<rect x="192" y="162" width="6" height="6" />
		<rect x="198" y="162" width="6" height="6" />
		<rect x="204" y="162" width="6" height="6" />
		<rect x="216" y="162" width="6" height="6" />
		<rect x="234" y="162" width="6" height="6" />
		<rect x="240" y="162" width="6" height="6" />
		<rect x="0" y="168" width="6" height="6" />
		<rect x="12" y="168" width="6" height="6" />
		<rect x="18" y="168" width="6" height="6" />
		<rect x="30" y="168" width="6" height="6" />
		<rect x="36" y="168" width="6" height="6" />
		<rect x="42" y="168" width="6" height="6" />
		<rect x="54" y="168" width="6" height="6" />
		<rect x="72" y="168" width="6" height="6" />
		<rect x="84" y="168" width="6" height="6" />
		<rect x="96" y="168" width="6" height="6" />
		<rect x="132" y="168" width="6" height="6" />
		<rect x="150" y="168" width="6" height="6" />
		<rect x="156" y="168" width="6" height="6" />
		<rect x="162" y="168" width="6" height="6" />
		<rect x="168" y="168" width="6" height="6" />
		<rect x="174" y="168" width="6" height="6" />
		<rect x="192" y="168" width="6" height="6" />
		<rect x="198" y="168" width="6" height="6" />
		<rect x="234" y="168" width="6" height="6" />
		<rect x="6" y="174" width="6" height="6" />
		<rect x="18" y="174" width="6" height="6" />
		<rect x="54" y="174" width="6" height="6" />
		<rect x="60" y="174" width="6" height="6" />
		<rect x="66" y="174" width="6" height="6" />
		<rect x="84" y="174" width="6" height="6" />
		<rect x="90" y="174" width="6" height="6" />
		<rect x="96" y="174" width="6" height="6" />
		<rect x="114" y="174" width="6" height="6" />
		<rect x="138" y="174" width="6" height="6" />
		<rect x="150" y="174" width="6" height="6" />
		<rect x="156" y="174" width="6" height="6" />
		<rect x="162" y="174" width="6" height="6" />
		<rect x="180" y="174" width="6" height="6" />
		<rect x="192" y="174" width="6" height="6" />
		<rect x="204" y="174" width="6" height="6" />
		<rect x="234" y="174" width="6" height="6" />
		<rect x="240" y="174" width="6" height="6" />
		<rect x="0" y="180" width="6" height="6" />
		<rect x="12" y="180" width="6" height="6" />
		<rect x="24" y="180" width="6" height="6" />
		<rect x="36" y="180" width="6" height="6" />
		<rect x="60" y="180" width="6" height="6" />
		<rect x="66" y="180" width="6" height="6" />
		<rect x="72" y="180" width="6" height="6" />
		<rect x="84" y="180" width="6" height="6" />
		<rect x="96" y="180" width="6" height="6" />
		<rect x="108" y="180" width="6" height="6" />
		<rect x="114" y="180" width="6" height="6" />
		<rect x="126" y="180" width="6" height="6" />
		<rect x="132" y="180" width="6" height="6" />
		<rect x="144" y="180" width="6" height="6" />
		<rect x="156" y="180" width="6" height="6" />
		<rect x="174" y="180" width="6" height="6" />
		<rect x="180" y="180" width="6" height="6" />
		<rect x="210" y="180" width="6" height="6" />
		<rect x="216" y="180" width="6" height="6" />
		<rect x="222" y="180" width="6" height="6" />
		<rect x="240" y="180" width="6" height="6" />
		<rect x="18" y="186" width="6" height="6" />
		<rect x="24" y="186" width="6" height="6" />
		<rect x="42" y="186" width="6" height="6" />
		<rect x="48" y="186" width="6" height="6" />
		<rect x="54" y="186" width="6" height="6" />
		<rect x="60" y="186" width="6" height="6" />
		<rect x="78" y="186" width="6" height="6" />
		<rect x="84" y="186" width="6" height="6" />
		<rect x="126" y="186" width="6" height="6" />
		<rect x="132" y="186" width="6" height="6" />
		<rect x="144" y="186" width="6" height="6" />
		<rect x="156" y="186" width="6" height="6" />
		<rect x="162" y="186" width="6" height="6" />
		<rect x="168" y="186" width="6" height="6" />
		<rect x="174" y="186" width="6" height="6" />
		<rect x="186" y="186" width="6" height="6" />
		<rect x="198" y="186" width="6" height="6" />
		<rect x="216" y="186" width="6" height="6" />
		<rect x="222" y="186" width="6" height="6" />
		<rect x="234" y="186" width="6" height="6" />
		<rect x="0" y="192" width="6" height="6" />
		<rect x="18" y="192" width="6" height="6" />
		<rect x="24" y="192" width="6" height="6" />
		<rect x="30" y="192" width="6" height="6" />
		<rect x="36" y="192" width="6" height="6" />
		<rect x="42" y="192" width="6" height="6" />
		<rect x="54" y="192" width="6" height="6" />
		<rect x="78" y="192" width="6" height="6" />
		<rect x="96" y="192" width="6" height="6" />
		<rect x="102" y="192" width="6" height="6" />
		<rect x="108" y="192" width="6" height="6" />
		<rect x="114" y="192" width="6" height="6" />
		<rect x="138" y="192" width="6" height="6" />
		<rect x="144" y="192" width="6" height="6" />
		<rect x="156" y="192" width="6" height="6" />
		<rect x="168" y="192" width="6" height="6" />
		<rect x="180" y="192" width="6" height="6" />
		<rect x="192" y="192" width="6" height="6" />
		<rect x="198" y="192" width="6" height="6" />
		<rect x="204" y="192" width="6" height="6" />
		<rect x="210" y="192" width="6" height="6" />
		<rect x="216" y="192" width="6" height="6" />
		<rect x="228" y="192" width="6" height="6" />
		<rect x="48" y="198" width="6" height="6" />
		<rect x="54" y="198" width="6" height="6" />
		<rect x="60" y="198" width="6" height="6" />
		<rect x="66" y="198" width="6" height="6" />
		<rect x="72" y="198" width="6" height="6" />
		<rect x="84" y="198" width="6" height="6" />
		<rect x="90" y="198" width="6" height="6" />
		<rect x="108" y="198" width="6" height="6" />
		<rect x="126" y="198" width="6" height="6" />
		<rect x="138" y="198" width="6" height="6" />
		<rect x="150" y="198" width="6" height="6" />
		<rect x="156" y="198" width="6" height="6" />
		<rect x="168" y="198" width="6" height="6" />
		<rect x="186" y="198" width="6" height="6" />
		<rect x="192" y="198" width="6" height="6" />
		<rect x="216" y="198" width="6" height="6" />
		<rect x="234" y="198" width="6" height="6" />
		<rect x="240" y="198" width="6" height="6" />
		<rect x="0" y="204" width="6" height="6" />
		<rect x="6" y="204" width="6" height="6" />
		<rect x="12" y="204" width="6" height="6" />
		<rect x="18" y="204" width="6" height="6" />
		<rect x="24" y="204" width="6" height="6" />
		<rect x="30" y="204" width="6" height="6" />
		<rect x="36" y="204" width="6" height="6" />
		<rect x="66" y="204" width="6" height="6" />
		<rect x="72" y="204" width="6" height="6" />
		<rect x="78" y="204" width="6" height="6" />
		<rect x="96" y="204" width="6" height="6" />
		<rect x="102" y="204" width="6" height="6" />
		<rect x="108" y="204" width="6" height="6" />
		<rect x="114" y="204" width="6" height="6" />
		<rect x="126" y="204" width="6" height="6" />
		<rect x="138" y="204" width="6" height="6" />
		<rect x="156" y="204" width="6" height="6" />
		<rect x="168" y="204" width="6" height="6" />
		<rect x="174" y="204" width="6" height="6" />
		<rect x="192" y="204" width="6" height="6" />
		<rect x="204" y="204" width="6" height="6" />
		<rect x="216" y="204" width="6" height="6" />
		<rect x="222" y="204" width="6" height="6" />
		<rect x="228" y="204" width="6" height="6" />
		<rect x="0" y="210" width="6" height="6" />
		<rect x="36" y="210" width="6" height="6" />
		<rect x="84" y="210" width="6" height="6" />
		<rect x="90" y="210" width="6" height="6" />
		<rect x="102" y="210" width="6" height="6" />
		<rect x="108" y="210" width="6" height="6" />
		<rect x="120" y="210" width="6" height="6" />
		<rect x="144" y="210" width="6" height="6" />
		<rect x="162" y="210" width="6" height="6" />
		<rect x="168" y="210" width="6" height="6" />
		<rect x="174" y="210" width="6" height="6" />
		<rect x="186" y="210" width="6" height="6" />
		<rect x="192" y="210" width="6" height="6" />
		<rect x="216" y="210" width="6" height="6" />
		<rect x="228" y="210" width="6" height="6" />
		<rect x="234" y="210" width="6" height="6" />
		<rect x="240" y="210" width="6" height="6" />
		<rect x="0" y="216" width="6" height="6" />
		<rect x="12" y="216" width="6" height="6" />
		<rect x="18" y="216" width="6" height="6" />
		<rect x="24" y="216" width="6" height="6" />
		<rect x="36" y="216" width="6" height="6" />
		<rect x="54" y="216" width="6" height="6" />
		<rect x="60" y="216" width="6" height="6" />
		<rect x="84" y="216" width="6" height="6" />
		<rect x="96" y="216" width="6" height="6" />
		<rect x="102" y="216" width="6" height="6" />
		<rect x="108" y="216" width="6" height="6" />
		<rect x="114" y="216" width="6" height="6" />
		<rect x="126" y="216" width="6" height="6" />
		<rect x="132" y="216" width="6" height="6" />
		<rect x="138" y="216" width="6" height="6" />
		<rect x="144" y="216" width="6" height="6" />
		<rect x="150" y="216" width="6" height="6" />
		<rect x="162" y="216" width="6" height="6" />
		<rect x="168" y="216" width="6" height="6" />
		<rect x="192" y="216" width="6" height="6" />
		<rect x="198" y="216" width="6" height="6" />
		<rect x="204" y="216" width="6" height="6" />
		<rect x="210" y="216" width="6" height="6" />
		<rect x="216" y="216" width="6" height="6" />
		<rect x="240" y="216" width="6" height="6" />
		<rect x="0" y="222" width="6" height="6" />
		<rect x="12" y="222" width="6" height="6" />
		<rect x="18" y="222" width="6" height="6" />
		<rect x="24" y="222" width="6" height="6" />
		<rect x="36" y="222" width="6" height="6" />
		<rect x="48" y="222" width="6" height="6" />
		<rect x="66" y="222" width="6" height="6" />
		<rect x="90" y="222" width="6" height="6" />
		<rect x="108" y="222" width="6" height="6" />
		<rect x="120" y="222" width="6" height="6" />
		<rect x="156" y="222" width="6" height="6" />
		<rect x="174" y="222" width="6" height="6" />
		<rect x="198" y="222" width="6" height="6" />
		<rect x="204" y="222" width="6" height="6" />
		<rect x="216" y="222" width="6" height="6" />
		<rect x="222" y="222" width="6" height="6" />
		<rect x="228" y="222" width="6" height="6" />
		<rect x="0" y="228" width="6" height="6" />
		<rect x="12" y="228" width="6" height="6" />
		<rect x="18" y="228" width="6" height="6" />
		<rect x="24" y="228" width="6" height="6" />
		<rect x="36" y="228" width="6" height="6" />
		<rect x="60" y="228" width="6" height="6" />
		<rect x="66" y="228" width="6" height="6" />
		<rect x="96" y="228" width="6" height="6" />
		<rect x="114" y="228" width="6" height="6" />
		<rect x="138" y="228" width="6" height="6" />
		<rect x="150" y="228" width="6" height="6" />
		<rect x="174" y="228" width="6" height="6" />
		<rect x="186" y="228" width="6" height="6" />
		<rect x="192" y="228" width="6" height="6" />
		<rect x="216" y="228" width="6" height="6" />
		<rect x="222" y="228" width="6" height="6" />
		<rect x="228" y="228" width="6" height="6" />
		<rect x="240" y="228" width="6" height="6" />
		<rect x="0" y="234" width="6" height="6" />
		<rect x="36" y="234" width="6" height="6" />
		<rect x="60" y="234" width="6" height="6" />
		<rect x="90" y="234" width="6" height="6" />
		<rect x="96" y="234" width="6" height="6" />
		<rect x="102" y="234" width="6" height="6" />
		<rect x="144" y="234" width="6" height="6" />
		<rect x="168" y="234" width="6" height="6" />
		<rect x="174" y="234" width="6" height="6" />
		<rect x="186" y="234" width="6" height="6" />
		<rect x="192" y="234" width="6" height="6" />
		<rect x="210" y="234" width="6" height="6" />
		<rect x="234" y="234" width="6" height="6" />
		<rect x="0" y="240" width="6" height="6" />
		<rect x="6" y="240" width="6" height="6" />
		<rect x="12" y="240" width="6" height="6" />
		<rect x="18" y="240" width="6" height="6" />
		<rect x="24" y="240" width="6" height="6" />
		<rect x="30" y="240" width="6" height="6" />
		<rect x="36" y="240" width="6" height="6" />
		<rect x="60" y="240" width="6" height="6" />
		<rect x="72" y="240" width="6" height="6" />
		<rect x="84" y="240" width="6" height="6" />
		<rect x="90" y="240" width="6" height="6" />
		<rect x="102" y="240" width="6" height="6" />
		<rect x="120" y="240" width="6" height="6" />
		<rect x="126" y="240" width="6" height="6" />
		<rect x="132" y="240" width="6" height="6" />
		<rect x="138" y="240" width="6" height="6" />
		<rect x="150" y="240" width="6" height="6" />
		<rect x="156" y="240" width="6" height="6" />
		<rect x="174" y="240" width="6" height="6" />
		<rect x="192" y="240" width="6" height="6" />
		<rect x="198" y="240" width="6" height="6" />
		<rect x="210" y="240" width="6" height="6" />
		<rect x="216" y="240" width="6" height="6" />
		<rect x="234" y="240" width="6" height="6" />
	</g>
</svg>
